<?xml version="1.0" encoding="UTF-8"?>
<svg id="Layer_2" data-name="Layer 2" xmlns="http://www.w3.org/2000/svg" viewBox="0 0 251.34 237.75">
  <g id="Layer_1-2" data-name="Layer 1">
    <rect width="251.34" height="237.75" style="fill: #627771; stroke-width: 0px;"/>
    <polyline points="206.91 106.05 135.78 136.06 103.67 162.4 115.22 200.17 148.49 210.47 204.78 197.57 243.39 173.65 243.69 127.85" style="fill: #fff; stroke-width: 0px;"/>
    <text transform="translate(130.05 189.71) rotate(-19)" style="fill: #627771; font-family: Calibre-Semibold, Calibre; font-size: 34px; font-weight: 600;"><tspan x="0" y="0">in</tspan><tspan x="25.06" y="0" style="letter-spacing: 0em;">t</tspan><tspan x="36.69" y="0">erieur</tspan></text>
    <path d="m64.01.62L1.5,39.32l2.91,56.85s150.82,28.7,149.84,32.21c-.98,3.52,12.03-43.36,12.03-43.36l-22.41-43.57L64.01.62Z" style="fill: #fff; stroke-width: 0px;"/>
    <text transform="translate(56.36 45.86) rotate(15.5)" style="fill: #627771; font-family: Calibre-Semibold, Calibre; font-size: 34px; font-weight: 600;"><tspan x="0" y="0" style="letter-spacing: -.02em;">v</tspan><tspan x="15.88" y="0">an </tspan></text>
    <text transform="translate(18.2 65.37) rotate(15.5)" style="fill: #627771; font-family: Calibre-Semibold, Calibre; font-size: 34px; font-weight: 600;"><tspan x="0" y="0">grien</tspan><tspan x="70.48" y="0" style="letter-spacing: -.01em;">sv</tspan><tspan x="100.94" y="0">en</tspan></text>
    <polygon points="10.39 112.35 10.39 229.35 40.82 211.35 94.82 202.35 103.82 184.35 99.21 157.35 121.82 130.35 13.82 107.72 10.39 112.35" style="fill: #fff; stroke-width: 0px;"/>
    <path d="m117.17,13.35c4.65,0,36.85,18,36.85,18l12.8,40.47s12.85,13.53,9,13.53-9,30.4-9,30.4l45-21.4,27,18V13.35h-121.65Z" style="fill: #fff; stroke-width: 0px;"/>
    <polygon points="20.02 230.33 103 210.42 140.61 214.84 214.74 208.21 243.51 183.87 241.29 232.55 20.02 230.33" style="fill: #fff; stroke-width: 0px;"/>
  </g>
</svg>